0
SECTION
2
HEADER
9
$INSUNITS
70
4
9
$ACADVER
1
AC1014
9
$HANDSEED
5
FFFF
0
ENDSEC
0
SECTION
2
TABLES
0
TABLE
2
VPORT
5
8
100
AcDbSymbolTable
0
ENDTAB
0
TABLE
2
LTYPE
5
5
100
AcDbSymbolTable
0
LTYPE
5
14
100
AcDbSymbolTableRecord
100
AcDbLinetypeTableRecord
2
BYBLOCK
70
0
0
LTYPE
5
15
100
AcDbSymbolTableRecord
100
AcDbLinetypeTableRecord
2
BYLAYER
70
0
0
ENDTAB
0
TABLE
2
LAYER
5
2
100
AcDbSymbolTable
70
2
0
LAYER
5
50
100
AcDbSymbolTableRecord
100
AcDbLayerTableRecord
2
0
70
0
6
CONTINUOUS
0
ENDTAB
0
TABLE
2
STYLE
5
3
100
AcDbSymbolTable
70
1
0
STYLE
5
11
100
AcDbSymbolTableRecord
100
AcDbTextStyleTableRecord
2
STANDARD
70
0
0
ENDTAB
0
TABLE
2
VIEW
5
6
100
AcDbSymbolTable
70
0
0
ENDTAB
0
TABLE
2
UCS
5
7
100
AcDbSymbolTable
70
0
0
ENDTAB
0
TABLE
2
APPID
5
9
100
AcDbSymbolTable
70
2
0
APPID
5
12
100
AcDbSymbolTableRecord
100
AcDbRegAppTableRecord
2
ACAD
70
0
0
ENDTAB
0
TABLE
2
DIMSTYLE
5
A
100
AcDbSymbolTable
70
1
0
ENDTAB
0
TABLE
2
BLOCK_RECORD
5
1
100
AcDbSymbolTable
70
1
0
BLOCK_RECORD
5
1F
100
AcDbSymbolTableRecord
100
AcDbBlockTableRecord
2
*MODEL_SPACE
0
BLOCK_RECORD
5
1B
100
AcDbSymbolTableRecord
100
AcDbBlockTableRecord
2
*PAPER_SPACE
0
ENDTAB
0
ENDSEC
0
SECTION
2
BLOCKS
0
BLOCK
5
20
100
AcDbEntity
100
AcDbBlockBegin
2
*MODEL_SPACE
0
ENDBLK
5
21
100
AcDbEntity
100
AcDbBlockEnd
0
BLOCK
5
1C
100
AcDbEntity
100
AcDbBlockBegin
2
*PAPER_SPACE
0
ENDBLK
5
1D
100
AcDbEntity
100
AcDbBlockEnd
0
ENDSEC
0
SECTION
2
ENTITIES
0
SPLINE
5
100
100
AcDbEntity
8
0
100
AcDbSpline
70
0
71
2
72
6
73
3
74
0
42
0.000000001
43
0.0000000001
44
0.0000000001
40
0
40
0
40
0
40
1
40
1
40
1
10
2.6606627468169233
20
89.934666922105961
30
0
10
2.0221935517221858
20
89.918564419728696
30
0
10
-1.3142211680665876
20
86.163307211384122
30
0
0
SPLINE
5
101
100
AcDbEntity
8
0
100
AcDbSpline
70
0
71
2
72
6
73
3
74
0
42
0.000000001
43
0.0000000001
44
0.0000000001
40
0
40
0
40
0
40
1
40
1
40
1
10
-1.3142211680665876
20
86.163307211384122
30
0
10
-2.4400459632616469
20
84.897868223002448
30
0
10
-2.5936766436269663
20
84.784797070328096
30
0
0
SPLINE
5
102
100
AcDbEntity
8
0
100
AcDbSpline
70
0
71
2
72
6
73
3
74
0
42
0.000000001
43
0.0000000001
44
0.0000000001
40
0
40
0
40
0
40
1
40
1
40
1
10
-2.5936766436269663
20
84.784797070328096
30
0
10
-2.7473070351889008
20
84.671728302973918
30
0
10
-3.087261051020493
20
84.581797901286791
30
0
0
SPLINE
5
103
100
AcDbEntity
8
0
100
AcDbSpline
70
0
71
2
72
6
73
3
74
0
42
0.000000001
43
0.0000000001
44
0.0000000001
40
0
40
0
40
0
40
1
40
1
40
1
10
-3.087261051020493
20
84.581797901286791
30
0
10
-3.4272150668520847
20
84.49186749959965
30
0
10
-3.6317123063683612
20
84.491076877357898
30
0
0
SPLINE
5
104
100
AcDbEntity
8
0
100
AcDbSpline
70
0
71
2
72
6
73
3
74
0
42
0.000000001
43
0.0000000001
44
0.0000000001
40
0
40
0
40
0
40
1
40
1
40
1
10
-3.6317123063683612
20
84.491076877357898
30
0
10
-4.0884232996893557
20
84.489311152450171
30
0
10
-3.4906496690068192
20
86.270774588813183
30
0
0
SPLINE
5
105
100
AcDbEntity
8
0
100
AcDbSpline
70
0
71
2
72
6
73
3
74
0
42
0.000000001
43
0.0000000001
44
0.0000000001
40
0
40
0
40
0
40
1
40
1
40
1
10
-3.4906496690068192
20
86.270774588813183
30
0
10
-3.1540143269450303
20
87.274130631013648
30
0
10
-1.8428088646587866
20
89.903621641615587
30
0
0
SPLINE
5
106
100
AcDbEntity
8
0
100
AcDbSpline
70
0
71
2
72
6
73
3
74
0
42
0.000000001
43
0.0000000001
44
0.0000000001
40
0
40
0
40
0
40
1
40
1
40
1
10
-1.8428088646587866
20
89.903621641615587
30
0
10
-1.3083034786555381
20
90.969090627232816
30
0
10
-1.1548854992149944
20
91.426401811527256
30
0
0
SPLINE
5
107
100
AcDbEntity
8
0
100
AcDbSpline
70
0
71
2
72
6
73
3
74
0
42
0.000000001
43
0.0000000001
44
0.0000000001
40
0
40
0
40
0
40
1
40
1
40
1
10
-1.1548854992149944
20
91.426401811527256
30
0
10
-1.0036778142008078
20
91.876888012315604
30
0
10
-0.60149967140199989
20
91.87844290364616
30
0
0
SPLINE
5
108
100
AcDbEntity
8
0
100
AcDbSpline
70
0
71
2
72
6
73
3
74
0
42
0.000000001
43
0.0000000001
44
0.0000000001
40
0
40
0
40
0
40
1
40
1
40
1
10
-0.60149967140199989
20
91.87844290364616
30
0
10
0.15514136649640853
20
91.881368210779897
30
0
10
-0.21129367059349313
20
90.789282070067614
30
0
0
SPLINE
5
109
100
AcDbEntity
8
0
100
AcDbSpline
70
0
71
2
72
6
73
3
74
0
42
0.000000001
43
0.0000000001
44
0.0000000001
40
0
40
0
40
0
40
1
40
1
40
1
10
-0.21129367059349313
20
90.789282070067614
30
0
10
-0.38314024541153069
20
90.277366940527912
30
0
10
-1.1368850373807287
20
88.781598045900395
30
0
0
SPLINE
5
110
100
AcDbEntity
8
0
100
AcDbSpline
70
0
71
2
72
6
73
3
74
0
42
0.000000001
43
0.0000000001
44
0.0000000001
40
0
40
0
40
0
40
1
40
1
40
1
10
-1.1368850373807287
20
88.781598045900395
30
0
10
-2.002499370315125
20
87.074082293864222
30
0
10
-2.1330411341183768
20
86.70547563279618
30
0
0
SPLINE
5
111
100
AcDbEntity
8
0
100
AcDbSpline
70
0
71
2
72
6
73
3
74
0
42
0.000000001
43
0.0000000001
44
0.0000000001
40
0
40
0
40
0
40
1
40
1
40
1
10
-2.1330411341183768
20
86.70547563279618
30
0
10
-1.5730000224235767
20
87.116641442489779
30
0
10
-0.2901222600875808
20
88.505388279785194
30
0
0
SPLINE
5
112
100
AcDbEntity
8
0
100
AcDbSpline
70
0
71
2
72
6
73
3
74
0
42
0.000000001
43
0.0000000001
44
0.0000000001
40
0
40
0
40
0
40
1
40
1
40
1
10
-0.2901222600875808
20
88.505388279785194
30
0
10
1.5054308095935776
20
90.407367950356587
30
0
10
2.2248004262856211
20
90.917992873174114
30
0
0
SPLINE
5
113
100
AcDbEntity
8
0
100
AcDbSpline
70
0
71
2
72
6
73
3
74
0
42
0.000000001
43
0.0000000001
44
0.0000000001
40
0
40
0
40
0
40
1
40
1
40
1
10
2.2248004262856211
20
90.917992873174114
30
0
10
2.9441700475864732
20
91.428616603907642
30
0
10
3.5303958251583278
20
91.430883055716649
30
0
0
SPLINE
5
114
100
AcDbEntity
8
0
100
AcDbSpline
70
0
71
2
72
6
73
3
74
0
42
0.000000001
43
0.0000000001
44
0.0000000001
40
0
40
0
40
0
40
1
40
1
40
1
10
3.5303958251583278
20
91.430883055716649
30
0
10
3.9734737734855861
20
91.432596072878184
30
0
10
4.0366361772191546
20
90.839788695580452
30
0
0
SPLINE
5
115
100
AcDbEntity
8
0
100
AcDbSpline
70
0
71
2
72
6
73
3
74
0
42
0.000000001
43
0.0000000001
44
0.0000000001
40
0
40
0
40
0
40
1
40
1
40
1
10
4.0366361772191546
20
90.839788695580452
30
0
10
4.0997991769947149
20
90.246981320587111
30
0
10
3.4031402776009347
20
88.008415148762765
30
0
0
SPLINE
5
116
100
AcDbEntity
8
0
100
AcDbSpline
70
0
71
2
72
6
73
3
74
0
42
0.000000001
43
0.0000000001
44
0.0000000001
40
0
40
0
40
0
40
1
40
1
40
1
10
3.4031402776009347
20
88.008415148762765
30
0
10
3.2290284468705766
20
87.44877500240645
30
0
10
3.2260354847260486
20
87.176096369488221
30
0
0
SPLINE
5
117
100
AcDbEntity
8
0
100
AcDbSpline
70
0
71
2
72
6
73
3
74
0
42
0.000000001
43
0.0000000001
44
0.0000000001
40
0
40
0
40
0
40
1
40
1
40
1
10
3.2260354847260486
20
87.176096369488221
30
0
10
3.2230425225815216
20
86.903417736569992
30
0
10
3.2639417320679796
20
86.903575860096566
30
0
0
SPLINE
5
118
100
AcDbEntity
8
0
100
AcDbSpline
70
0
71
2
72
6
73
3
74
0
42
0.000000001
43
0.0000000001
44
0.0000000001
40
0
40
0
40
0
40
1
40
1
40
1
10
3.2639417320679796
20
86.903575860096566
30
0
10
3.5843208598518785
20
86.904814502069542
30
0
10
5.3873938694172541
20
89.093124375991266
30
0
0
SPLINE
5
119
100
AcDbEntity
8
0
100
AcDbSpline
70
0
71
2
72
6
73
3
74
0
42
0.000000001
43
0.0000000001
44
0.0000000001
40
0
40
0
40
0
40
1
40
1
40
1
10
5.3873938694172541
20
89.093124375991266
30
0
10
6.3469545079195928
20
90.248852779622041
30
0
10
7.0904114339263913
20
90.851595127026627
30
0
0
SPLINE
5
120
100
AcDbEntity
8
0
100
AcDbSpline
70
0
71
2
72
6
73
3
74
0
42
0.000000001
43
0.0000000001
44
0.0000000001
40
0
40
0
40
0
40
1
40
1
40
1
10
7.0904114339263913
20
90.851595127026627
30
0
10
7.8338695520171786
20
91.454337479040049
30
0
10
8.4950780083701982
20
91.456893827053676
30
0
0
SPLINE
5
121
100
AcDbEntity
8
0
100
AcDbSpline
70
0
71
2
72
6
73
3
74
0
42
0.000000001
43
0.0000000001
44
0.0000000001
40
0
40
0
40
0
40
1
40
1
40
1
10
8.4950780083701982
20
91.456893827053676
30
0
10
9.047221508731333
20
91.459028510793445
30
0
10
9.1082144654745694
20
90.890071471553284
30
0
0
SPLINE
5
122
100
AcDbEntity
8
0
100
AcDbSpline
70
0
71
2
72
6
73
3
74
0
42
0.000000001
43
0.0000000001
44
0.0000000001
40
0
40
0
40
0
40
1
40
1
40
1
10
9.1082144654745694
20
90.890071471553284
30
0
10
9.169208614301791
20
90.321114436921903
30
0
10
8.9026772855568197
20
89.202147596910706
30
0
0
SPLINE
5
123
100
AcDbEntity
8
0
100
AcDbSpline
70
0
71
2
72
6
73
3
74
0
42
0.000000001
43
0.0000000001
44
0.0000000001
40
0
40
0
40
0
40
1
40
1
40
1
10
8.9026772855568197
20
89.202147596910706
30
0
10
8.6248035322925976
20
88.06950402885505
30
0
10
8.5234750172852536
20
87.128410435656733
30
0
0
SPLINE
5
124
100
AcDbEntity
8
0
100
AcDbSpline
70
0
71
2
72
6
73
3
74
0
42
0.000000001
43
0.0000000001
44
0.0000000001
40
0
40
0
40
0
40
1
40
1
40
1
10
8.5234750172852536
20
87.128410435656733
30
0
10
8.4221477035795083
20
86.187314462899252
30
0
10
8.9053424824784404
20
85.923334339495412
30
0
0
SPLINE
5
125
100
AcDbEntity
8
0
100
AcDbSpline
70
0
71
2
72
6
73
3
74
0
42
0.000000001
43
0.0000000001
44
0.0000000001
40
0
40
0
40
0
40
1
40
1
40
1
10
8.9053424824784404
20
85.923334339495412
30
0
10
9.2320782867623947
20
85.740546575654378
30
0
10
9.1496300335409853
20
85.494826507105557
30
0
0
SPLINE
5
126
100
AcDbEntity
8
0
100
AcDbSpline
70
0
71
2
72
6
73
3
74
0
42
0.000000001
43
0.0000000001
44
0.0000000001
40
0
40
0
40
0
40
1
40
1
40
1
10
9.1496300335409853
20
85.494826507105557
30
0
10
9.0694990642837059
20
85.255931835703194
30
0
10
8.6575386499049038
20
85.002123761354383
30
0
0
SPLINE
5
127
100
AcDbEntity
8
0
100
AcDbSpline
70
0
71
2
72
6
73
3
74
0
42
0.000000001
43
0.0000000001
44
0.0000000001
40
0
40
0
40
0
40
1
40
1
40
1
10
8.6575386499049038
20
85.002123761354383
30
0
10
8.2455782447437116
20
84.748313302837616
30
0
10
7.9729140666380243
20
84.747259135239801
30
0
0
SPLINE
5
128
100
AcDbEntity
8
0
100
AcDbSpline
70
0
71
2
72
6
73
3
74
0
42
0.000000001
43
0.0000000001
44
0.0000000001
40
0
40
0
40
0
40
1
40
1
40
1
10
7.9729140666380243
20
84.747259135239801
30
0
10
7.4275880945946193
20
84.745150809261787
30
0
10
7.2225847642159069
20
85.412393008146921
30
0
0
SPLINE
5
129
100
AcDbEntity
8
0
100
AcDbSpline
70
0
71
2
72
6
73
3
74
0
42
0.000000001
43
0.0000000001
44
0.0000000001
40
0
40
0
40
0
40
1
40
1
40
1
10
7.2225847642159069
20
85.412393008146921
30
0
10
7.0175814338371945
20
86.079635207032055
30
0
10
7.5461156188736567
20
88.303918502945322
30
0
0
SPLINE
5
130
100
AcDbEntity
8
0
100
AcDbSpline
70
0
71
2
72
6
73
3
74
0
42
0.000000001
43
0.0000000001
44
0.0000000001
40
0
40
0
40
0
40
1
40
1
40
1
10
7.5461156188736567
20
88.303918502945322
30
0
10
7.7506747391143449
20
89.19769375275159
30
0
10
7.788047859577949
20
89.572756645601856
30
0
0
SPLINE
5
131
100
AcDbEntity
8
0
100
AcDbSpline
70
0
71
2
72
6
73
3
74
0
42
0.000000001
43
0.0000000001
44
0.0000000001
40
0
40
0
40
0
40
1
40
1
40
1
10
7.788047859577949
20
89.572756645601856
30
0
10
7.8254209892591664
20
89.947817154284181
30
0
10
7.6345576142943656
20
89.947079242957159
30
0
0
SPLINE
5
132
100
AcDbEntity
8
0
100
AcDbSpline
70
0
71
2
72
6
73
3
74
0
42
0.000000001
43
0.0000000001
44
0.0000000001
40
0
40
0
40
0
40
1
40
1
40
1
10
7.6345576142943656
20
89.947079242957159
30
0
10
7.3482607637211883
20
89.945972369053422
30
0
10
6.7730893064026461
20
89.398414531985964
30
0
0
SPLINE
5
133
100
AcDbEntity
8
0
100
AcDbSpline
70
0
71
2
72
6
73
3
74
0
42
0.000000001
43
0.0000000001
44
0.0000000001
40
0
40
0
40
0
40
1
40
1
40
1
10
6.7730893064026461
20
89.398414531985964
30
0
10
6.1979190411680918
20
88.850856699527299
30
0
10
4.7642662175357113
20
87.175227001525542
30
0
0
SPLINE
5
134
100
AcDbEntity
8
0
100
AcDbSpline
70
0
71
2
72
6
73
3
74
0
42
0.000000001
43
0.0000000001
44
0.0000000001
40
0
40
0
40
0
40
1
40
1
40
1
10
4.7642662175357113
20
87.175227001525542
30
0
10
3.6452028016972395
20
85.868913140902308
30
0
10
3.1486799512224595
20
85.434134178441013
30
0
0
SPLINE
5
135
100
AcDbEntity
8
0
100
AcDbSpline
70
0
71
2
72
6
73
3
74
0
42
0.000000001
43
0.0000000001
44
0.0000000001
40
0
40
0
40
0
40
1
40
1
40
1
10
3.1486799512224595
20
85.434134178441013
30
0
10
2.6521571007476794
20
84.999355215979733
30
0
10
2.3249610406880428
20
84.998090218549407
30
0
0
SPLINE
5
136
100
AcDbEntity
8
0
100
AcDbSpline
70
0
71
2
72
6
73
3
74
0
42
0.000000001
43
0.0000000001
44
0.0000000001
40
0
40
0
40
0
40
1
40
1
40
1
10
2.3249610406880428
20
84.998090218549407
30
0
10
2.0318484499231126
20
84.996956993797113
30
0
10
1.8791100530092808
20
85.231541940171724
30
0
0
SPLINE
5
137
100
AcDbEntity
8
0
100
AcDbSpline
70
0
71
2
72
6
73
3
74
0
42
0.000000001
43
0.0000000001
44
0.0000000001
40
0
40
0
40
0
40
1
40
1
40
1
10
1.8791100530092808
20
85.231541940171724
30
0
10
1.7263722521374425
20
85.466126888850752
30
0
10
1.7761122971437193
20
85.796927170319975
30
0
0
SPLINE
5
138
100
AcDbEntity
8
0
100
AcDbSpline
70
0
71
2
72
6
73
3
74
0
42
0.000000001
43
0.0000000001
44
0.0000000001
40
0
40
0
40
0
40
1
40
1
40
1
10
1.7761122971437193
20
85.796927170319975
30
0
10
1.8258517368903915
20
86.127729833652765
30
0
10
2.1927740611630595
20
87.424319346605415
30
0
0
SPLINE
5
139
100
AcDbEntity
8
0
100
AcDbSpline
70
0
71
2
72
6
73
3
74
0
42
0.000000001
43
0.0000000001
44
0.0000000001
40
0
40
0
40
0
40
1
40
1
40
1
10
2.1927740611630595
20
87.424319346605415
30
0
10
2.8142348685885721
20
89.580792763556744
30
0
10
2.6606627468169233
20
89.934666922105961
30
0
0
SPLINE
5
140
100
AcDbEntity
8
0
100
AcDbSpline
70
0
71
2
72
6
73
3
74
0
42
0.000000001
43
0.0000000001
44
0.0000000001
40
0
40
0
40
0
40
1
40
1
40
1
10
15.479527415275346
20
87.073504114209115
30
0
10
14.094645577748793
20
85.786611867243607
30
0
10
12.945493442148774
20
85.141400017988985
30
0
0
SPLINE
5
141
100
AcDbEntity
8
0
100
AcDbSpline
70
0
71
2
72
6
73
3
74
0
42
0.000000001
43
0.0000000001
44
0.0000000001
40
0
40
0
40
0
40
1
40
1
40
1
10
12.945493442148774
20
85.141400017988985
30
0
10
11.796341297331143
20
84.496190552902334
30
0
10
11.019250356668508
20
84.493186182853094
30
0
0
SPLINE
5
142
100
AcDbEntity
8
0
100
AcDbSpline
70
0
71
2
72
6
73
3
74
0
42
0.000000001
43
0.0000000001
44
0.0000000001
40
0
40
0
40
0
40
1
40
1
40
1
10
11.019250356668508
20
84.493186182853094
30
0
10
10.494373393326342
20
84.491156916333949
30
0
10
10.261535563559427
20
84.933339507392859
30
0
0
SPLINE
5
143
100
AcDbEntity
8
0
100
AcDbSpline
70
0
71
2
72
6
73
3
74
0
42
0.000000001
43
0.0000000001
44
0.0000000001
40
0
40
0
40
0
40
1
40
1
40
1
10
10.261535563559427
20
84.933339507392859
30
0
10
10.028697724574902
20
85.375524482619738
30
0
10
10.26224726931472
20
86.071730340620945
30
0
0
SPLINE
5
144
100
AcDbEntity
8
0
100
AcDbSpline
70
0
71
2
72
6
73
3
74
0
42
0.000000001
43
0.0000000001
44
0.0000000001
40
0
40
0
40
0
40
1
40
1
40
1
10
10.26224726931472
20
86.071730340620945
30
0
10
10.864548543675383
20
87.866846542092503
30
0
10
13.161566056110168
20
89.944590094827134
30
0
0
SPLINE
5
145
100
AcDbEntity
8
0
100
AcDbSpline
70
0
71
2
72
6
73
3
74
0
42
0.000000001
43
0.0000000001
44
0.0000000001
40
0
40
0
40
0
40
1
40
1
40
1
10
13.161566056110168
20
89.944590094827134
30
0
10
15.458584760628945
20
92.022333652170602
30
0
10
17.040031986889193
20
92.02844780488094
30
0
0
SPLINE
5
146
100
AcDbEntity
8
0
100
AcDbSpline
70
0
71
2
72
6
73
3
74
0
42
0.000000001
43
0.0000000001
44
0.0000000001
40
0
40
0
40
0
40
1
40
1
40
1
10
17.040031986889193
20
92.02844780488094
30
0
10
17.612623303867579
20
92.030661543470814
30
0
10
17.672242196224026
20
91.376491331157013
30
0
0
SPLINE
5
147
100
AcDbEntity
8
0
100
AcDbSpline
70
0
71
2
72
6
73
3
74
0
42
0.000000001
43
0.0000000001
44
0.0000000001
40
0
40
0
40
0
40
1
40
1
40
1
10
17.672242196224026
20
91.376491331157013
30
0
10
17.687571733982214
20
91.158416233300301
30
0
10
17.878436301031002
20
91.159154149236144
30
0
0
SPLINE
5
148
100
AcDbEntity
8
0
100
AcDbSpline
70
0
71
2
72
6
73
3
74
0
42
0.000000001
43
0.0000000001
44
0.0000000001
40
0
40
0
40
0
40
1
40
1
40
1
10
17.878436301031002
20
91.159154149236144
30
0
10
18.423762273074402
20
91.161262475214158
30
0
10
18.281714340993382
20
90.738079824321545
30
0
0
SPLINE
5
149
100
AcDbEntity
8
0
100
AcDbSpline
70
0
71
2
72
6
73
3
74
0
42
0.000000001
43
0.0000000001
44
0.0000000001
40
0
40
0
40
0
40
1
40
1
40
1
10
18.281714340993382
20
90.738079824321545
30
0
10
18.210744023341057
20
90.526487514187522
30
0
10
18.018854036741306
20
90.157644862217978
30
0
0
SPLINE
5
150
100
AcDbEntity
8
0
100
AcDbSpline
70
0
71
2
72
6
73
3
74
0
42
0.000000001
43
0.0000000001
44
0.0000000001
40
0
40
0
40
0
40
1
40
1
40
1
10
18.018854036741306
20
90.157644862217978
30
0
10
16.975172270777264
20
88.142689033810655
30
0
10
16.698028267725221
20
87.316797539296715
30
0
0
SPLINE
5
151
100
AcDbEntity
8
0
100
AcDbSpline
70
0
71
2
72
6
73
3
74
0
42
0.000000001
43
0.0000000001
44
0.0000000001
40
0
40
0
40
0
40
1
40
1
40
1
10
16.698028267725221
20
87.316797539296715
30
0
10
16.143847539962294
20
85.665017349229387
30
0
10
16.661044102501492
20
85.33981597120831
30
0
0
SPLINE
5
152
100
AcDbEntity
8
0
100
AcDbSpline
70
0
71
2
72
6
73
3
74
0
42
0.000000001
43
0.0000000001
44
0.0000000001
40
0
40
0
40
0
40
1
40
1
40
1
10
16.661044102501492
20
85.33981597120831
30
0
10
16.906008514610807
20
85.177163763367048
30
0
10
16.825876353269539
20
84.938269087355849
30
0
0
SPLINE
5
153
100
AcDbEntity
8
0
100
AcDbSpline
70
0
71
2
72
6
73
3
74
0
42
0.000000001
43
0.0000000001
44
0.0000000001
40
0
40
0
40
0
40
1
40
1
40
1
10
16.825876353269539
20
84.938269087355849
30
0
10
16.754798743449648
20
84.726677554513273
30
0
10
16.389558981176307
20
84.510539327966939
30
0
0
SPLINE
5
154
100
AcDbEntity
8
0
100
AcDbSpline
70
0
71
2
72
6
73
3
74
0
42
0.000000001
43
0.0000000001
44
0.0000000001
40
0
40
0
40
0
40
1
40
1
40
1
10
16.389558981176307
20
84.510539327966939
30
0
10
16.024316834734996
20
84.294401092202975
30
0
10
15.751653848713296
20
84.293346929213982
30
0
0
SPLINE
5
155
100
AcDbEntity
8
0
100
AcDbSpline
70
0
71
2
72
6
73
3
74
0
42
0.000000001
43
0.0000000001
44
0.0000000001
40
0
40
0
40
0
40
1
40
1
40
1
10
15.751653848713296
20
84.293346929213982
30
0
10
15.226776885371125
20
84.291317662694851
30
0
10
15.128711997576968
20
85.013507193540448
30
0
0
SPLINE
5
156
100
AcDbEntity
8
0
100
AcDbSpline
70
0
71
2
72
6
73
3
74
0
42
0.000000001
43
0.0000000001
44
0.0000000001
40
0
40
0
40
0
40
1
40
1
40
1
10
15.128711997576968
20
85.013507193540448
30
0
10
15.030644725614831
20
85.735696715168444
30
0
10
15.479527415275346
20
87.073504114209115
30
0
0
SPLINE
5
157
100
AcDbEntity
8
0
100
AcDbSpline
70
0
71
2
72
6
73
3
74
0
42
0.000000001
43
0.0000000001
44
0.0000000001
40
0
40
0
40
0
40
1
40
1
40
1
10
16.353083498440732
20
90.914673188518179
30
0
10
15.453293737234738
20
90.911194443280351
30
0
10
13.693577064768498
20
89.217260645672923
30
0
0
SPLINE
5
158
100
AcDbEntity
8
0
100
AcDbSpline
70
0
71
2
72
6
73
3
74
0
42
0.000000001
43
0.0000000001
44
0.0000000001
40
0
40
0
40
0
40
1
40
1
40
1
10
13.693577064768498
20
89.217260645672923
30
0
10
11.933859195609466
20
87.523328035540672
30
0
10
11.560580185619129
20
86.41076731257003
30
0
0
SPLINE
5
159
100
AcDbEntity
8
0
100
AcDbSpline
70
0
71
2
72
6
73
3
74
0
42
0.000000001
43
0.0000000001
44
0.0000000001
40
0
40
0
40
0
40
1
40
1
40
1
10
11.560580185619129
20
86.41076731257003
30
0
10
11.297231397491498
20
85.625830165701302
30
0
10
11.815292024599922
20
85.627833079067472
30
0
0
SPLINE
5
160
100
AcDbEntity
8
0
100
AcDbSpline
70
0
71
2
72
6
73
3
74
0
42
0.000000001
43
0.0000000001
44
0.0000000001
40
0
40
0
40
0
40
1
40
1
40
1
10
11.815292024599922
20
85.627833079067472
30
0
10
12.565115236159603
20
85.630732027287237
30
0
10
14.402777209840128
20
87.15114085045569
30
0
0
SPLINE
5
161
100
AcDbEntity
8
0
100
AcDbSpline
70
0
71
2
72
6
73
3
74
0
42
0.000000001
43
0.0000000001
44
0.0000000001
40
0
40
0
40
0
40
1
40
1
40
1
10
14.402777209840128
20
87.15114085045569
30
0
10
16.240440375604635
20
88.671549678232935
30
0
10
16.666367203344585
20
89.941099176276083
30
0
0
SPLINE
5
162
100
AcDbEntity
8
0
100
AcDbSpline
70
0
71
2
72
6
73
3
74
0
42
0.000000001
43
0.0000000001
44
0.0000000001
40
0
40
0
40
0
40
1
40
1
40
1
10
16.666367203344585
20
89.941099176276083
30
0
10
16.993842946092514
20
90.917150477072909
30
0
10
16.353083498440732
20
90.914673188518179
30
0
0
SPLINE
5
163
100
AcDbEntity
8
0
100
AcDbSpline
70
0
71
2
72
6
73
3
74
0
42
0.000000001
43
0.0000000001
44
0.0000000001
40
0
40
0
40
0
40
1
40
1
40
1
10
20.531236568696741
20
87.317984519536665
30
0
10
20.640572201991489
20
87.441107884857644
30
0
10
20.809293283825127
20
87.659893362630839
30
0
0
SPLINE
5
164
100
AcDbEntity
8
0
100
AcDbSpline
70
0
71
2
72
6
73
3
74
0
42
0.000000001
43
0.0000000001
44
0.0000000001
40
0
40
0
40
0
40
1
40
1
40
1
10
20.809293283825127
20
87.659893362630839
30
0
10
21.630094626338568
20
88.7264692186952
30
0
10
22.221336664039427
20
89.332032487771272
30
0
0
SPLINE
5
165
100
AcDbEntity
8
0
100
AcDbSpline
70
0
71
2
72
6
73
3
74
0
42
0.000000001
43
0.0000000001
44
0.0000000001
40
0
40
0
40
0
40
1
40
1
40
1
10
22.221336664039427
20
89.332032487771272
30
0
10
22.812578710957894
20
89.937593372679387
30
0
10
23.465050717846108
20
90.492268889570255
30
0
0
SPLINE
5
166
100
AcDbEntity
8
0
100
AcDbSpline
70
0
71
2
72
6
73
3
74
0
42
0.000000001
43
0.0000000001
44
0.0000000001
40
0
40
0
40
0
40
1
40
1
40
1
10
23.465050717846108
20
90.492268889570255
30
0
10
24.117520349783966
20
91.046942013075551
30
0
10
24.598847485582457
20
91.335102846153461
30
0
0
SPLINE
5
167
100
AcDbEntity
8
0
100
AcDbSpline
70
0
71
2
72
6
73
3
74
0
42
0.000000001
43
0.0000000001
44
0.0000000001
40
0
40
0
40
0
40
1
40
1
40
1
10
24.598847485582457
20
91.335102846153461
30
0
10
25.080172227995369
20
91.623266054181713
30
0
10
25.431483224818837
20
91.73709908947248
30
0
0
SPLINE
5
168
100
AcDbEntity
8
0
100
AcDbSpline
70
0
71
2
72
6
73
3
74
0
42
0.000000001
43
0.0000000001
44
0.0000000001
40
0
40
0
40
0
40
1
40
1
40
1
10
25.431483224818837
20
91.73709908947248
30
0
10
25.782794221642309
20
91.850932124763261
30
0
10
26.075908600533218
20
91.852065356428781
30
0
0
SPLINE
5
169
100
AcDbEntity
8
0
100
AcDbSpline
70
0
71
2
72
6
73
3
74
0
42
0.000000001
43
0.0000000001
44
0.0000000001
40
0
40
0
40
0
40
1
40
1
40
1
10
26.075908600533218
20
91.852065356428781
30
0
10
26.668951310380816
20
91.854358163695167
30
0
10
26.923667053707923
20
91.497466825089887
30
0
0
SPLINE
5
170
100
AcDbEntity
8
0
100
AcDbSpline
70
0
71
2
72
6
73
3
74
0
42
0.000000001
43
0.0000000001
44
0.0000000001
40
0
40
0
40
0
40
1
40
1
40
1
10
26.923667053707923
20
91.497466825089887
30
0
10
27.178382797035027
20
91.140575486484593
30
0
10
27.018013561744088
20
90.662788113055257
30
0
0
SPLINE
5
171
100
AcDbEntity
8
0
100
AcDbSpline
70
0
71
2
72
6
73
3
74
0
42
0.000000001
43
0.0000000001
44
0.0000000001
40
0
40
0
40
0
40
1
40
1
40
1
10
27.018013561744088
20
90.662788113055257
30
0
10
26.947043239482959
20
90.451196995005205
30
0
10
26.75683752891111
20
90.280043520721847
30
0
0
SPLINE
5
172
100
AcDbEntity
8
0
100
AcDbSpline
70
0
71
2
72
6
73
3
74
0
42
0.000000001
43
0.0000000001
44
0.0000000001
40
0
40
0
40
0
40
1
40
1
40
1
10
26.75683752891111
20
90.280043520721847
30
0
10
26.566631809121649
20
90.108892430606431
30
0
10
26.293968823099945
20
90.10783826761741
30
0
0
SPLINE
5
173
100
AcDbEntity
8
0
100
AcDbSpline
70
0
71
2
72
6
73
3
74
0
42
0.000000001
43
0.0000000001
44
0.0000000001
40
0
40
0
40
0
40
1
40
1
40
1
10
26.293968823099945
20
90.10783826761741
30
0
10
26.007673164610754
20
90.106731398322495
30
0
10
25.853856209468141
20
90.35835327010075
30
0
0
SPLINE
5
174
100
AcDbEntity
8
0
100
AcDbSpline
70
0
71
2
72
6
73
3
74
0
42
0.000000001
43
0.0000000001
44
0.0000000001
40
0
40
0
40
0
40
1
40
1
40
1
10
25.853856209468141
20
90.35835327010075
30
0
10
25.693225302259751
20
90.609948797943645
30
0
10
25.427378652471795
20
90.608920988107599
30
0
0
SPLINE
5
175
100
AcDbEntity
8
0
100
AcDbSpline
70
0
71
2
72
6
73
3
74
0
42
0.000000001
43
0.0000000001
44
0.0000000001
40
0
40
0
40
0
40
1
40
1
40
1
10
25.427378652471795
20
90.608920988107599
30
0
10
24.718453458314585
20
90.606180158805614
30
0
10
22.887068077380839
20
88.881295305846294
30
0
0
SPLINE
5
176
100
AcDbEntity
8
0
100
AcDbSpline
70
0
71
2
72
6
73
3
74
0
42
0.000000001
43
0.0000000001
44
0.0000000001
40
0
40
0
40
0
40
1
40
1
40
1
10
22.887068077380839
20
88.881295305846294
30
0
10
21.055680312279115
20
87.156410443669387
30
0
10
20.089108334545564
20
85.087218846084468
30
0
0
SPLINE
5
177
100
AcDbEntity
8
0
100
AcDbSpline
70
0
71
2
72
6
73
3
74
0
42
0.000000001
43
0.0000000001
44
0.0000000001
40
0
40
0
40
0
40
1
40
1
40
1
10
20.089108334545564
20
85.087218846084468
30
0
10
19.842252049539276
20
84.554563209371167
30
0
10
19.594106279678989
20
84.383188112846767
30
0
0
SPLINE
5
178
100
AcDbEntity
8
0
100
AcDbSpline
70
0
71
2
72
6
73
3
74
0
42
0.000000001
43
0.0000000001
44
0.0000000001
40
0
40
0
40
0
40
1
40
1
40
1
10
19.594106279678989
20
84.383188112846767
30
0
10
19.345958134868347
20
84.211810622936767
30
0
10
18.998313066107478
20
84.210466566047558
30
0
0
SPLINE
5
179
100
AcDbEntity
8
0
100
AcDbSpline
70
0
71
2
72
6
73
3
74
0
42
0.000000001
43
0.0000000001
44
0.0000000001
40
0
40
0
40
0
40
1
40
1
40
1
10
18.998313066107478
20
84.210466566047558
30
0
10
18.664300669814097
20
84.209175215464256
30
0
10
18.681547910574736
20
84.706860952690249
30
0
0
SPLINE
5
180
100
AcDbEntity
8
0
100
AcDbSpline
70
0
71
2
72
6
73
3
74
0
42
0.000000001
43
0.0000000001
44
0.0000000001
40
0
40
0
40
0
40
1
40
1
40
1
10
18.681547910574736
20
84.706860952690249
30
0
10
18.69879754472095
20
85.204544314965887
30
0
10
19.095031224547867
20
86.385362934325258
30
0
0
SPLINE
5
181
100
AcDbEntity
8
0
100
AcDbSpline
70
0
71
2
72
6
73
3
74
0
42
0.000000001
43
0.0000000001
44
0.0000000001
40
0
40
0
40
0
40
1
40
1
40
1
10
19.095031224547867
20
86.385362934325258
30
0
10
19.202644153228835
20
86.706163497448699
30
0
10
19.603161472138257
20
87.798380214146221
30
0
0
SPLINE
5
182
100
AcDbEntity
8
0
100
AcDbSpline
70
0
71
2
72
6
73
3
74
0
42
0.000000001
43
0.0000000001
44
0.0000000001
40
0
40
0
40
0
40
1
40
1
40
1
10
19.603161472138257
20
87.798380214146221
30
0
10
20.076940544123431
20
89.088566415932021
30
0
10
20.465304249283371
20
89.880802138442959
30
0
0
SPLINE
5
183
100
AcDbEntity
8
0
100
AcDbSpline
70
0
71
2
72
6
73
3
74
0
42
0.000000001
43
0.0000000001
44
0.0000000001
40
0
40
0
40
0
40
1
40
1
40
1
10
20.465304249283371
20
89.880802138442959
30
0
10
20.529240428738063
20
90.010566419622009
30
0
10
20.737326397224386
20
90.488539466423688
30
0
0
SPLINE
5
184
100
AcDbEntity
8
0
100
AcDbSpline
70
0
71
2
72
6
73
3
74
0
42
0.000000001
43
0.0000000001
44
0.0000000001
40
0
40
0
40
0
40
1
40
1
40
1
10
20.737326397224386
20
90.488539466423688
30
0
10
20.961309102006535
20
91.014290231739096
30
0
10
21.101589698705219
20
91.219332877362717
30
0
0
SPLINE
5
185
100
AcDbEntity
8
0
100
AcDbSpline
70
0
71
2
72
6
73
3
74
0
42
0.000000001
43
0.0000000001
44
0.0000000001
40
0
40
0
40
0
40
1
40
1
40
1
10
21.101589698705219
20
91.219332877362717
30
0
10
21.241870295403899
20
91.424375522986338
30
0
10
21.522955598059951
20
91.602695599750845
30
0
0
SPLINE
5
186
100
AcDbEntity
8
0
100
AcDbSpline
70
0
71
2
72
6
73
3
74
0
42
0.000000001
43
0.0000000001
44
0.0000000001
40
0
40
0
40
0
40
1
40
1
40
1
10
21.522955598059951
20
91.602695599750845
30
0
10
21.804038516548022
20
91.781015667297723
30
0
10
22.063068830102232
20
91.782017123980808
30
0
0
SPLINE
5
187
100
AcDbEntity
8
0
100
AcDbSpline
70
0
71
2
72
6
73
3
74
0
42
0.000000001
43
0.0000000001
44
0.0000000001
40
0
40
0
40
0
40
1
40
1
40
1
10
22.063068830102232
20
91.782017123980808
30
0
10
22.315282807422697
20
91.782992227510931
30
0
10
22.387582139658466
20
91.62307949310545
30
0
0
SPLINE
5
188
100
AcDbEntity
8
0
100
AcDbSpline
70
0
71
2
72
6
73
3
74
0
42
0.000000001
43
0.0000000001
44
0.0000000001
40
0
40
0
40
0
40
1
40
1
40
1
10
22.387582139658466
20
91.62307949310545
30
0
10
22.459883851453391
20
91.463167960001584
30
0
10
22.398072988713245
20
91.278879198611094
30
0
0
SPLINE
5
189
100
AcDbEntity
8
0
100
AcDbSpline
70
0
71
2
72
6
73
3
74
0
42
0.000000001
43
0.0000000001
44
0.0000000001
40
0
40
0
40
0
40
1
40
1
40
1
10
22.398072988713245
20
91.278879198611094
30
0
10
22.308781367851005
20
91.012682165940362
30
0
10
22.009763360193887
20
90.527541121786115
30
0
0
SPLINE
5
190
100
AcDbEntity
8
0
100
AcDbSpline
70
0
71
2
72
6
73
3
74
0
42
0.000000001
43
0.0000000001
44
0.0000000001
40
0
40
0
40
0
40
1
40
1
40
1
10
22.009763360193887
20
90.527541121786115
30
0
10
21.672082323575577
20
89.987717902512799
30
0
10
21.576163940343601
20
89.782846768997331
30
0
0
SPLINE
5
191
100
AcDbEntity
8
0
100
AcDbSpline
70
0
71
2
72
6
73
3
74
0
42
0.000000001
43
0.0000000001
44
0.0000000001
40
0
40
0
40
0
40
1
40
1
40
1
10
21.576163940343601
20
89.782846768997331
30
0
10
21.477792766706465
20
89.550698015881125
30
0
10
21.338495338349361
20
89.297944104521349
30
0
0
SPLINE
5
192
100
AcDbEntity
8
0
100
AcDbSpline
70
0
71
2
72
6
73
3
74
0
42
0.000000001
43
0.0000000001
44
0.0000000001
40
0
40
0
40
0
40
1
40
1
40
1
10
21.338495338349361
20
89.297944104521349
30
0
10
21.171876127292748
20
89.004181165226214
30
0
10
20.684628117380996
20
87.754843903082573
30
0
0
LINE
5
193
100
AcDbEntity
8
0
100
AcDbLine
10
20.684628117380996
20
87.754843903082573
30
0
11
20.593045042660112
21
87.50227446379354
31
0
0
LINE
5
194
100
AcDbEntity
8
0
100
AcDbLine
10
20.593045042660112
20
87.50227446379354
30
0
11
20.531236568696741
21
87.317984519536665
31
0
0
SPLINE
5
195
100
AcDbEntity
8
0
100
AcDbSpline
70
0
71
2
72
6
73
3
74
0
42
0.000000001
43
0.0000000001
44
0.0000000001
40
0
40
0
40
0
40
1
40
1
40
1
10
30.439943752343449
20
91.528103655735976
30
0
10
31.160371529308861
20
91.585422845204093
30
0
10
31.805847835802943
20
91.662901573483396
30
0
0
SPLINE
5
196
100
AcDbEntity
8
0
100
AcDbSpline
70
0
71
2
72
6
73
3
74
0
42
0.000000001
43
0.0000000001
44
0.0000000001
40
0
40
0
40
0
40
1
40
1
40
1
10
31.805847835802943
20
91.662901573483396
30
0
10
32.442295425489952
20
91.733528957038232
30
0
10
32.85128990452251
20
91.735110201521749
30
0
0
SPLINE
5
197
100
AcDbEntity
8
0
100
AcDbSpline
70
0
71
2
72
6
73
3
74
0
42
0.000000001
43
0.0000000001
44
0.0000000001
40
0
40
0
40
0
40
1
40
1
40
1
10
32.85128990452251
20
91.735110201521749
30
0
10
33.369350531630928
20
91.737113114887904
30
0
10
33.473619145678029
20
91.642082525680763
30
0
0
SPLINE
5
198
100
AcDbEntity
8
0
100
AcDbSpline
70
0
71
2
72
6
73
3
74
0
42
0.000000001
43
0.0000000001
44
0.0000000001
40
0
40
0
40
0
40
1
40
1
40
1
10
33.473619145678029
20
91.642082525680763
30
0
10
33.57788775972513
20
91.547051936473622
30
0
10
33.497650690384255
20
91.308158046971499
30
0
0
SPLINE
5
199
100
AcDbEntity
8
0
100
AcDbSpline
70
0
71
2
72
6
73
3
74
0
42
0.000000001
43
0.0000000001
44
0.0000000001
40
0
40
0
40
0
40
1
40
1
40
1
10
33.497650690384255
20
91.308158046971499
30
0
10
33.312222879717353
20
90.755289397067287
30
0
10
32.525836968483908
20
90.704531639988176
30
0
0
SPLINE
5
200
100
AcDbEntity
8
0
100
AcDbSpline
70
0
71
2
72
6
73
3
74
0
42
0.000000001
43
0.0000000001
44
0.0000000001
40
0
40
0
40
0
40
1
40
1
40
1
10
32.525836968483908
20
90.704531639988176
30
0
10
31.516901147847168
20
90.639281781737608
30
0
10
30.648634522117955
20
90.526858324257603
30
0
0
SPLINE
5
201
100
AcDbEntity
8
0
100
AcDbSpline
70
0
71
2
72
6
73
3
74
0
42
0.000000001
43
0.0000000001
44
0.0000000001
40
0
40
0
40
0
40
1
40
1
40
1
10
30.648634522117955
20
90.526858324257603
30
0
10
29.780367900997547
20
90.414433674693626
30
0
10
29.691550645352123
20
90.342515307125154
30
0
0
SPLINE
5
202
100
AcDbEntity
8
0
100
AcDbSpline
70
0
71
2
72
6
73
3
74
0
42
0.000000001
43
0.0000000001
44
0.0000000001
40
0
40
0
40
0
40
1
40
1
40
1
10
29.691550645352123
20
90.342515307125154
30
0
10
29.602731005538729
20
90.270596930339053
30
0
10
28.734073086181358
20
88.716442845261099
30
0
0
SPLINE
5
203
100
AcDbEntity
8
0
100
AcDbSpline
70
0
71
2
72
6
73
3
74
0
42
0.000000001
43
0.0000000001
44
0.0000000001
40
0
40
0
40
0
40
1
40
1
40
1
10
28.734073086181358
20
88.716442845261099
30
0
10
27.865417550991957
20
87.162288769400732
30
0
10
27.709682883629277
20
86.698152190264253
30
0
0
SPLINE
5
204
100
AcDbEntity
8
0
100
AcDbSpline
70
0
71
2
72
6
73
3
74
0
42
0.000000001
43
0.0000000001
44
0.0000000001
40
0
40
0
40
0
40
1
40
1
40
1
10
27.709682883629277
20
86.698152190264253
30
0
10
27.457704738903161
20
85.947343579101755
30
0
10
27.571778751591026
20
85.69897388898454
30
0
0
SPLINE
5
205
100
AcDbEntity
8
0
100
AcDbSpline
70
0
71
2
72
6
73
3
74
0
42
0.000000001
43
0.0000000001
44
0.0000000001
40
0
40
0
40
0
40
1
40
1
40
1
10
27.571778751591026
20
85.69897388898454
30
0
10
27.685855139229247
20
85.45060659225291
30
0
10
28.081216945794306
20
85.452135130430506
30
0
0
SPLINE
5
206
100
AcDbEntity
8
0
100
AcDbSpline
70
0
71
2
72
6
73
3
74
0
42
0.000000001
43
0.0000000001
44
0.0000000001
40
0
40
0
40
0
40
1
40
1
40
1
10
28.081216945794306
20
85.452135130430506
30
0
10
28.667443319408154
20
85.454401584543916
30
0
10
30.005843831952738
20
86.338929972262235
30
0
0
SPLINE
5
207
100
AcDbEntity
8
0
100
AcDbSpline
70
0
71
2
72
6
73
3
74
0
42
0.000000001
43
0.0000000001
44
0.0000000001
40
0
40
0
40
0
40
1
40
1
40
1
10
30.005843831952738
20
86.338929972262235
30
0
10
30.529431319658514
20
86.702237394802268
30
0
10
30.747561231642283
20
86.703080723349956
30
0
0
SPLINE
5
208
100
AcDbEntity
8
0
100
AcDbSpline
70
0
71
2
72
6
73
3
74
0
42
0.000000001
43
0.0000000001
44
0.0000000001
40
0
40
0
40
0
40
1
40
1
40
1
10
30.747561231642283
20
86.703080723349956
30
0
10
31.040673226365222
20
86.704213945797846
30
0
10
30.935270294089623
20
86.390238365028296
30
0
0
SPLINE
5
209
100
AcDbEntity
8
0
100
AcDbSpline
70
0
71
2
72
6
73
3
74
0
42
0.000000001
43
0.0000000001
44
0.0000000001
40
0
40
0
40
0
40
1
40
1
40
1
10
30.935270294089623
20
86.390238365028296
30
0
10
30.770376162597159
20
85.898800621316255
30
0
10
29.564034037170096
20
85.113627107758759
30
0
0
SPLINE
5
210
100
AcDbEntity
8
0
100
AcDbSpline
70
0
71
2
72
6
73
3
74
0
42
0.000000001
43
0.0000000001
44
0.0000000001
40
0
40
0
40
0
40
1
40
1
40
1
10
29.564034037170096
20
85.113627107758759
30
0
10
28.357694305128611
20
84.328451219250894
30
0
10
27.369289788715953
20
84.324629873806913
30
0
0
SPLINE
5
211
100
AcDbEntity
8
0
100
AcDbSpline
70
0
71
2
72
6
73
3
74
0
42
0.000000001
43
0.0000000001
44
0.0000000001
40
0
40
0
40
0
40
1
40
1
40
1
10
27.369289788715953
20
84.324629873806913
30
0
10
25.71967681595028
20
84.318252180349319
30
0
10
26.372415911655192
20
86.263532174539478
30
0
0
SPLINE
5
212
100
AcDbEntity
8
0
100
AcDbSpline
70
0
71
2
72
6
73
3
74
0
42
0.000000001
43
0.0000000001
44
0.0000000001
40
0
40
0
40
0
40
1
40
1
40
1
10
26.372415911655192
20
86.263532174539478
30
0
10
26.608390037135518
20
86.966561460311709
30
0
10
27.443905914040748
20
88.442197181955237
30
0
0
SPLINE
5
213
100
AcDbEntity
8
0
100
AcDbSpline
70
0
71
2
72
6
73
3
74
0
42
0.000000001
43
0.0000000001
44
0.0000000001
40
0
40
0
40
0
40
1
40
1
40
1
10
27.443905914040748
20
88.442197181955237
30
0
10
28.270288179965718
20
89.91097876913139
30
0
10
28.368741653734514
20
90.204475783511313
30
0
0
SPLINE
5
214
100
AcDbEntity
8
0
100
AcDbSpline
70
0
71
2
72
6
73
3
74
0
42
0.000000001
43
0.0000000001
44
0.0000000001
40
0
40
0
40
0
40
1
40
1
40
1
10
28.368741653734514
20
90.204475783511313
30
0
10
28.403066980799025
20
90.306858639354317
30
0
10
28.239470142853193
20
90.306226145247948
30
0
0
LINE
5
215
100
AcDbEntity
8
0
100
AcDbLine
10
28.239470142853186
20
90.306226145247962
30
0
11
27.510013644471897
21
90.242056803139349
31
0
0
SPLINE
5
216
100
AcDbEntity
8
0
100
AcDbSpline
70
0
71
2
72
6
73
3
74
0
42
0.000000001
43
0.0000000001
44
0.0000000001
40
0
40
0
40
0
40
1
40
1
40
1
10
27.510013644471893
20
90.242056803139349
30
0
10
26.637491612368855
20
90.238683479730994
30
0
10
26.871038782158312
20
90.93488694434663
30
0
0
SPLINE
5
217
100
AcDbEntity
8
0
100
AcDbSpline
70
0
71
2
72
6
73
3
74
0
42
0.000000001
43
0.0000000001
44
0.0000000001
40
0
40
0
40
0
40
1
40
1
40
1
10
26.871038782158312
20
90.93488694434663
30
0
10
27.003924865941581
20
91.330768421446066
30
0
10
27.406105392908362
20
91.332323321994252
30
0
0
LINE
5
218
100
AcDbEntity
8
0
100
AcDbLine
10
27.406105392908362
20
91.332323321994267
30
0
11
28.810320724587317
21
91.337752265074684
31
0
0
SPLINE
5
219
100
AcDbEntity
8
0
100
AcDbSpline
70
0
71
2
72
6
73
3
74
0
42
0.000000001
43
0.0000000001
44
0.0000000001
40
0
40
0
40
0
40
1
40
1
40
1
10
28.810320724587317
20
91.337752265074684
30
0
10
28.953468553831915
20
91.338305699722156
30
0
10
29.106021872661245
20
91.468412590324974
30
0
0
SPLINE
5
220
100
AcDbEntity
8
0
100
AcDbSpline
70
0
71
2
72
6
73
3
74
0
42
0.000000001
43
0.0000000001
44
0.0000000001
40
0
40
0
40
0
40
1
40
1
40
1
10
29.106021872661245
20
91.468412590324974
30
0
10
29.258575191490571
20
91.598519480927777
30
0
10
29.718389789327723
20
92.339908159240522
30
0
0
SPLINE
5
221
100
AcDbEntity
8
0
100
AcDbSpline
70
0
71
2
72
6
73
3
74
0
42
0.000000001
43
0.0000000001
44
0.0000000001
40
0
40
0
40
0
40
1
40
1
40
1
10
29.718389789327723
20
92.339908159240522
30
0
10
30.178206775941646
20
93.081295654686912
30
0
10
30.584515011533856
20
93.805433988503694
30
0
0
SPLINE
5
222
100
AcDbEntity
8
0
100
AcDbSpline
70
0
71
2
72
6
73
3
74
0
42
0.000000001
43
0.0000000001
44
0.0000000001
40
0
40
0
40
0
40
1
40
1
40
1
10
30.584515011533856
20
93.805433988503694
30
0
10
30.988610861943926
20
94.522748522832956
30
0
10
31.465773471649875
20
94.52459331728133
30
0
0
SPLINE
5
223
100
AcDbEntity
8
0
100
AcDbSpline
70
0
71
2
72
6
73
3
74
0
42
0.000000001
43
0.0000000001
44
0.0000000001
40
0
40
0
40
0
40
1
40
1
40
1
10
31.465773471649875
20
94.52459331728133
30
0
10
31.758885466372814
20
94.525726539729234
30
0
10
31.853776814326249
20
94.321593110144519
30
0
0
SPLINE
5
224
100
AcDbEntity
8
0
100
AcDbSpline
70
0
71
2
72
6
73
3
74
0
42
0.000000001
43
0.0000000001
44
0.0000000001
40
0
40
0
40
0
40
1
40
1
40
1
10
31.853776814326249
20
94.321593110144519
30
0
10
31.948668162279688
20
94.117459680559804
30
0
10
31.889174588112471
20
93.939995124231757
30
0
0
SPLINE
5
225
100
AcDbEntity
8
0
100
AcDbSpline
70
0
71
2
72
6
73
3
74
0
42
0.000000001
43
0.0000000001
44
0.0000000001
40
0
40
0
40
0
40
1
40
1
40
1
10
31.889174588112471
20
93.939995124231757
30
0
10
31.857059252844508
20
93.844438442826629
30
0
10
31.316198685054996
20
92.962994676700447
30
0
0
LINE
5
226
100
AcDbEntity
8
0
100
AcDbLine
10
31.316198685054996
20
92.962994676700461
30
0
11
30.439943752343449
21
91.528103655735976
31
0
0
SPLINE
5
227
100
AcDbEntity
8
0
100
AcDbSpline
70
0
71
2
72
6
73
3
74
0
42
0.000000001
43
0.0000000001
44
0.0000000001
40
0
40
0
40
0
40
1
40
1
40
1
10
37.160174765999287
20
93.8035908914526
30
0
10
37.017024552586719
20
93.803037447587513
30
0
10
37.045130502326998
20
94.109897746528048
30
0
0
SPLINE
5
228
100
AcDbEntity
8
0
100
AcDbSpline
70
0
71
2
72
6
73
3
74
0
42
0.000000001
43
0.0000000001
44
0.0000000001
40
0
40
0
40
0
40
1
40
1
40
1
10
37.045130502326998
20
94.109897746528048
30
0
10
37.049978108491992
20
94.205349006103717
30
0
10
37.041118741848948
20
94.32119897067787
30
0
0
SPLINE
5
229
100
AcDbEntity
8
0
100
AcDbSpline
70
0
71
2
72
6
73
3
74
0
42
0.000000001
43
0.0000000001
44
0.0000000001
40
0
40
0
40
0
40
1
40
1
40
1
10
37.041118741848948
20
94.32119897067787
30
0
10
37.005960618671764
20
94.764147018300747
30
0
10
37.115888447148897
20
95.09177296935303
30
0
0
SPLINE
5
230
100
AcDbEntity
8
0
100
AcDbSpline
70
0
71
2
72
6
73
3
74
0
42
0.000000001
43
0.0000000001
44
0.0000000001
40
0
40
0
40
0
40
1
40
1
40
1
10
37.115888447148897
20
95.09177296935303
30
0
10
37.207497356584071
20
95.364794207086192
30
0
10
37.62631762760401
20
95.649306350689386
30
0
0
SPLINE
5
231
100
AcDbEntity
8
0
100
AcDbSpline
70
0
71
2
72
6
73
3
74
0
42
0.000000001
43
0.0000000001
44
0.0000000001
40
0
40
0
40
0
40
1
40
1
40
1
10
37.62631762760401
20
95.649306350689386
30
0
10
38.045137903232742
20
95.933817302208581
30
0
10
38.440499709797798
20
95.935345840386191
30
0
0
SPLINE
5
232
100
AcDbEntity
8
0
100
AcDbSpline
70
0
71
2
72
6
73
3
74
0
42
0.000000001
43
0.0000000001
44
0.0000000001
40
0
40
0
40
0
40
1
40
1
40
1
10
38.440499709797798
20
95.935345840386191
30
0
10
38.638175844744381
20
95.936110091039737
30
0
10
38.83208668501392
20
95.783485158303208
30
0
0
SPLINE
5
233
100
AcDbEntity
8
0
100
AcDbSpline
70
0
71
2
72
6
73
3
74
0
42
0.000000001
43
0.0000000001
44
0.0000000001
40
0
40
0
40
0
40
1
40
1
40
1
10
38.83208668501392
20
95.783485158303208
30
0
10
39.025992761556317
20
95.630859015047463
30
0
10
38.977871022874602
20
95.487522999034425
30
0
0
SPLINE
5
234
100
AcDbEntity
8
0
100
AcDbSpline
70
0
71
2
72
6
73
3
74
0
42
0.000000001
43
0.0000000001
44
0.0000000001
40
0
40
0
40
0
40
1
40
1
40
1
10
38.977871022874602
20
95.487522999034425
30
0
10
38.902266137294021
20
95.262279894607531
30
0
10
38.554361788409082
20
94.722417150213573
30
0
0
SPLINE
5
235
100
AcDbEntity
8
0
100
AcDbSpline
70
0
71
2
72
6
73
3
74
0
42
0.000000001
43
0.0000000001
44
0.0000000001
40
0
40
0
40
0
40
1
40
1
40
1
10
38.554361788409082
20
94.722417150213573
30
0
10
38.206452671188195
20
94.182554387384414
30
0
10
37.778747198810926
20
93.993440409911244
30
0
0
SPLINE
5
236
100
AcDbEntity
8
0
100
AcDbSpline
70
0
71
2
72
6
73
3
74
0
42
0.000000001
43
0.0000000001
44
0.0000000001
40
0
40
0
40
0
40
1
40
1
40
1
10
37.778747198810926
20
93.993440409911244
30
0
10
37.3510369488801
20
93.804328798170815
30
0
10
37.160174765999287
20
93.8035908914526
30
0
0
SPLINE
5
237
100
AcDbEntity
8
0
100
AcDbSpline
70
0
71
2
72
6
73
3
74
0
42
0.000000001
43
0.0000000001
44
0.0000000001
40
0
40
0
40
0
40
1
40
1
40
1
10
33.709106140555328
20
86.176012890991842
30
0
10
33.535050169982725
20
85.657271589318654
30
0
10
33.460547570342499
20
85.009398085780248
30
0
0
SPLINE
5
238
100
AcDbEntity
8
0
100
AcDbSpline
70
0
71
2
72
6
73
3
74
0
42
0.000000001
43
0.0000000001
44
0.0000000001
40
0
40
0
40
0
40
1
40
1
40
1
10
33.460547570342499
20
85.009398085780248
30
0
10
33.446643028488154
20
84.886643673818369
30
0
10
33.419159876980487
20
84.804737777488484
30
0
0
SPLINE
5
239
100
AcDbEntity
8
0
100
AcDbSpline
70
0
71
2
72
6
73
3
74
0
42
0.000000001
43
0.0000000001
44
0.0000000001
40
0
40
0
40
0
40
1
40
1
40
1
10
33.419159876980487
20
84.804737777488484
30
0
10
33.377882702632384
20
84.681877538122222
30
0
10
33.08765085781252
20
84.486481003920233
30
0
0
SPLINE
5
240
100
AcDbEntity
8
0
100
AcDbSpline
70
0
71
2
72
6
73
3
74
0
42
0.000000001
43
0.0000000001
44
0.0000000001
40
0
40
0
40
0
40
1
40
1
40
1
10
33.08765085781252
20
84.486481003920233
30
0
10
32.797419022210249
20
84.291082085550286
30
0
10
32.545207429057761
20
84.290106991237792
30
0
0
SPLINE
5
241
100
AcDbEntity
8
0
100
AcDbSpline
70
0
71
2
72
6
73
3
74
0
42
0.000000001
43
0.0000000001
44
0.0000000001
40
0
40
0
40
0
40
1
40
1
40
1
10
32.545207429057761
20
84.290106991237792
30
0
10
31.883998972704738
20
84.287550643224165
30
0
10
32.291709391407949
20
85.502498208473483
30
0
0
SPLINE
5
242
100
AcDbEntity
8
0
100
AcDbSpline
70
0
71
2
72
6
73
3
74
0
42
0.000000001
43
0.0000000001
44
0.0000000001
40
0
40
0
40
0
40
1
40
1
40
1
10
32.291709391407949
20
85.502498208473483
30
0
10
32.713111322946375
20
86.758397336233912
30
0
10
34.142731370651475
20
89.476964622381871
30
0
0
SPLINE
5
243
100
AcDbEntity
8
0
100
AcDbSpline
70
0
71
2
72
6
73
3
74
0
42
0.000000001
43
0.0000000001
44
0.0000000001
40
0
40
0
40
0
40
1
40
1
40
1
10
34.142731370651475
20
89.476964622381871
30
0
10
34.63827478012378
20
90.426398757713855
30
0
10
34.711562381740237
20
90.644816464994307
30
0
0
SPLINE
5
244
100
AcDbEntity
8
0
100
AcDbSpline
70
0
71
2
72
6
73
3
74
0
42
0.000000001
43
0.0000000001
44
0.0000000001
40
0
40
0
40
0
40
1
40
1
40
1
10
34.711562381740237
20
90.644816464994307
30
0
10
34.855820305617812
20
91.074825290324796
30
0
10
35.114531394520071
20
91.379167738070549
30
0
0
SPLINE
5
245
100
AcDbEntity
8
0
100
AcDbSpline
70
0
71
2
72
6
73
3
74
0
42
0.000000001
43
0.0000000001
44
0.0000000001
40
0
40
0
40
0
40
1
40
1
40
1
10
35.114531394520071
20
91.379167738070549
30
0
10
35.373237715086383
20
91.683510167381073
30
0
10
35.65953337357557
20
91.684617036676016
30
0
0
SPLINE
5
246
100
AcDbEntity
8
0
100
AcDbSpline
70
0
71
2
72
6
73
3
74
0
42
0.000000001
43
0.0000000001
44
0.0000000001
40
0
40
0
40
0
40
1
40
1
40
1
10
35.65953337357557
20
91.684617036676016
30
0
10
36.007178442336446
20
91.685961093565254
30
0
10
36.152147341683204
20
91.519512874348777
30
0
0
SPLINE
5
247
100
AcDbEntity
8
0
100
AcDbSpline
70
0
71
2
72
6
73
3
74
0
42
0.000000001
43
0.0000000001
44
0.0000000001
40
0
40
0
40
0
40
1
40
1
40
1
10
36.152147341683204
20
91.519512874348777
30
0
10
36.297111472694013
20
91.353064636697084
30
0
10
36.228460818564983
20
91.14829892501109
30
0
0
SPLINE
5
248
100
AcDbEntity
8
0
100
AcDbSpline
70
0
71
2
72
6
73
3
74
0
42
0.000000001
43
0.0000000001
44
0.0000000001
40
0
40
0
40
0
40
1
40
1
40
1
10
36.228460818564983
20
91.14829892501109
30
0
10
36.15970049270922
20
90.943532789314929
30
0
10
35.952019520491611
20
90.608712469321915
30
0
0
SPLINE
5
249
100
AcDbEntity
8
0
100
AcDbSpline
70
0
71
2
72
6
73
3
74
0
42
0.000000001
43
0.0000000001
44
0.0000000001
40
0
40
0
40
0
40
1
40
1
40
1
10
35.952019520491611
20
90.608712469321915
30
0
10
34.836157863376137
20
88.804794315099542
30
0
10
34.452373894889881
20
88.026207982792386
30
0
0
SPLINE
5
250
100
AcDbEntity
8
0
100
AcDbSpline
70
0
71
2
72
6
73
3
74
0
42
0.000000001
43
0.0000000001
44
0.0000000001
40
0
40
0
40
0
40
1
40
1
40
1
10
34.452373894889881
20
88.026207982792386
30
0
10
34.068589926403639
20
87.247621650485243
30
0
10
33.709106140555328
20
86.176012890991842
30
0
0
SPLINE
5
251
100
AcDbEntity
8
0
100
AcDbSpline
70
0
71
2
72
6
73
3
74
0
42
0.000000001
43
0.0000000001
44
0.0000000001
40
0
40
0
40
0
40
1
40
1
40
1
10
42.337373259683702
20
89.938096453827598
30
0
10
41.982909470521115
20
89.936726034567783
30
0
10
41.407957011859239
20
89.47096868582716
30
0
0
SPLINE
5
252
100
AcDbEntity
8
0
100
AcDbSpline
70
0
71
2
72
6
73
3
74
0
42
0.000000001
43
0.0000000001
44
0.0000000001
40
0
40
0
40
0
40
1
40
1
40
1
10
41.407957011859239
20
89.47096868582716
30
0
10
40.832999784861443
20
89.00521131865132
30
0
10
39.431303917116431
20
87.384239061014185
30
0
0
SPLINE
5
253
100
AcDbEntity
8
0
100
AcDbSpline
70
0
71
2
72
6
73
3
74
0
42
0.000000001
43
0.0000000001
44
0.0000000001
40
0
40
0
40
0
40
1
40
1
40
1
10
39.431303917116431
20
87.384239061014185
30
0
10
37.571512488955669
20
85.209342779964629
30
0
10
37.140088627602793
20
84.907742005470425
30
0
0
SPLINE
5
254
100
AcDbEntity
8
0
100
AcDbSpline
70
0
71
2
72
6
73
3
74
0
42
0.000000001
43
0.0000000001
44
0.0000000001
40
0
40
0
40
0
40
1
40
1
40
1
10
37.140088627602793
20
84.907742005470425
30
0
10
36.708660007131591
20
84.606138828373005
30
0
10
36.490527710979855
20
84.605295490607716
30
0
0
SPLINE
5
255
100
AcDbEntity
8
0
100
AcDbSpline
70
0
71
2
72
6
73
3
74
0
42
0.000000001
43
0.0000000001
44
0.0000000001
40
0
40
0
40
0
40
1
40
1
40
1
10
36.490527710979855
20
84.605295490607716
30
0
10
35.686171425382234
20
84.602185707946632
30
0
10
35.947309025020523
20
85.380297867852647
30
0
0
SPLINE
5
256
100
AcDbEntity
8
0
100
AcDbSpline
70
0
71
2
72
6
73
3
74
0
42
0.000000001
43
0.0000000001
44
0.0000000001
40
0
40
0
40
0
40
1
40
1
40
1
10
35.947309025020523
20
85.380297867852647
30
0
10
36.057241621833583
20
85.707923837340147
30
0
10
36.367844507821751
20
86.308992695008229
30
0
0
SPLINE
5
257
100
AcDbEntity
8
0
100
AcDbSpline
70
0
71
2
72
6
73
3
74
0
42
0.000000001
43
0.0000000001
44
0.0000000001
40
0
40
0
40
0
40
1
40
1
40
1
10
36.367844507821751
20
86.308992695008229
30
0
10
37.434458685160038
20
88.371754635186591
30
0
10
38.201652894320361
20
90.658309767845324
30
0
0
SPLINE
5
258
100
AcDbEntity
8
0
100
AcDbSpline
70
0
71
2
72
6
73
3
74
0
42
0.000000001
43
0.0000000001
44
0.0000000001
40
0
40
0
40
0
40
1
40
1
40
1
10
38.201652894320361
20
90.658309767845324
30
0
10
38.288627240436092
20
90.917679019201657
30
0
10
38.616674443099001
20
91.235923600881137
30
0
0
SPLINE
5
259
100
AcDbEntity
8
0
100
AcDbSpline
70
0
71
2
72
6
73
3
74
0
42
0.000000001
43
0.0000000001
44
0.0000000001
40
0
40
0
40
0
40
1
40
1
40
1
10
38.616674443099001
20
91.235923600881137
30
0
10
38.944721645761909
20
91.55416818256063
30
0
10
39.142402549044441
20
91.554932451649421
30
0
0
SPLINE
5
260
100
AcDbEntity
8
0
100
AcDbSpline
70
0
71
2
72
6
73
3
74
0
42
0.000000001
43
0.0000000001
44
0.0000000001
40
0
40
0
40
0
40
1
40
1
40
1
10
39.142402549044441
20
91.554932451649421
30
0
10
39.496866338207028
20
91.556302870909221
30
0
10
39.573545286236886
20
91.338464960646803
30
0
0
SPLINE
5
261
100
AcDbEntity
8
0
100
AcDbSpline
70
0
71
2
72
6
73
3
74
0
42
0.000000001
43
0.0000000001
44
0.0000000001
40
0
40
0
40
0
40
1
40
1
40
1
10
39.573545286236886
20
91.338464960646803
30
0
10
39.650224234266751
20
91.1206270503844
30
0
10
39.42804414084447
20
90.458549723480601
30
0
0
SPLINE
5
262
100
AcDbEntity
8
0
100
AcDbSpline
70
0
71
2
72
6
73
3
74
0
42
0.000000001
43
0.0000000001
44
0.0000000001
40
0
40
0
40
0
40
1
40
1
40
1
10
39.42804414084447
20
90.458549723480601
30
0
10
39.196814255019142
20
89.76917165601138
30
0
10
38.066317970257934
20
87.617544272423942
30
0
0
SPLINE
5
263
100
AcDbEntity
8
0
100
AcDbSpline
70
0
71
2
72
6
73
3
74
0
42
0.000000001
43
0.0000000001
44
0.0000000001
40
0
40
0
40
0
40
1
40
1
40
1
10
38.066317970257934
20
87.617544272423942
30
0
10
37.691802355361389
20
86.907162922803337
30
0
10
37.627676597433883
20
86.716047581400048
30
0
0
SPLINE
5
264
100
AcDbEntity
8
0
100
AcDbSpline
70
0
71
2
72
6
73
3
74
0
42
0.000000001
43
0.0000000001
44
0.0000000001
40
0
40
0
40
0
40
1
40
1
40
1
10
37.627676597433883
20
86.716047581400048
30
0
10
37.591033991014051
20
86.606838136326616
30
0
10
37.645569449219963
20
86.607048979985564
30
0
0
SPLINE
5
265
100
AcDbEntity
8
0
100
AcDbSpline
70
0
71
2
72
6
73
3
74
0
42
0.000000001
43
0.0000000001
44
0.0000000001
40
0
40
0
40
0
40
1
40
1
40
1
10
37.645569449219963
20
86.607048979985564
30
0
10
37.747816876894106
20
86.607444286497639
30
0
10
39.140514630882286
20
88.242017016289651
30
0
0
SPLINE
5
266
100
AcDbEntity
8
0
100
AcDbSpline
70
0
71
2
72
6
73
3
74
0
42
0.000000001
43
0.0000000001
44
0.0000000001
40
0
40
0
40
0
40
1
40
1
40
1
10
39.140514630882286
20
88.242017016289651
30
0
10
40.549085666011138
20
89.903916867452892
30
0
10
41.416545334950783
20
90.582121834758908
30
0
0
SPLINE
5
267
100
AcDbEntity
8
0
100
AcDbSpline
70
0
71
2
72
6
73
3
74
0
42
0.000000001
43
0.0000000001
44
0.0000000001
40
0
40
0
40
0
40
1
40
1
40
1
10
41.416545334950783
20
90.582121834758908
30
0
10
42.284009772226376
20
91.260326820500168
30
0
10
43.054286760823253
20
91.263304846614062
30
0
0
SPLINE
5
268
100
AcDbEntity
8
0
100
AcDbSpline
70
0
71
2
72
6
73
3
74
0
42
0.000000001
43
0.0000000001
44
0.0000000001
40
0
40
0
40
0
40
1
40
1
40
1
10
43.054286760823253
20
91.263304846614062
30
0
10
43.667776095204104
20
91.265676704121717
30
0
10
43.865114654399321
20
90.707472650206924
30
0
0
SPLINE
5
269
100
AcDbEntity
8
0
100
AcDbSpline
70
0
71
2
72
6
73
3
74
0
42
0.000000001
43
0.0000000001
44
0.0000000001
40
0
40
0
40
0
40
1
40
1
40
1
10
43.865114654399321
20
90.707472650206924
30
0
10
44.062453222812152
20
90.149266212124161
30
0
10
43.742790351560345
20
88.668810814878483
30
0
0
SPLINE
5
270
100
AcDbEntity
8
0
100
AcDbSpline
70
0
71
2
72
6
73
3
74
0
42
0.000000001
43
0.0000000001
44
0.0000000001
40
0
40
0
40
0
40
1
40
1
40
1
10
43.742790351560345
20
88.668810814878483
30
0
10
43.367890155193521
20
86.983641564232457
30
0
10
43.382745323126088
20
86.57128899335747
30
0
0
SPLINE
5
271
100
AcDbEntity
8
0
100
AcDbSpline
70
0
71
2
72
6
73
3
74
0
42
0.000000001
43
0.0000000001
44
0.0000000001
40
0
40
0
40
0
40
1
40
1
40
1
10
43.382745323126088
20
86.57128899335747
30
0
10
43.39760049105864
20
86.158936422482512
30
0
10
43.731612887352028
20
86.160227773065813
30
0
0
SPLINE
5
272
100
AcDbEntity
8
0
100
AcDbSpline
70
0
71
2
72
6
73
3
74
0
42
0.000000001
43
0.0000000001
44
0.0000000001
40
0
40
0
40
0
40
1
40
1
40
1
10
43.731612887352028
20
86.160227773065813
30
0
10
43.942926463102054
20
86.16104474846054
30
0
10
44.313637922015019
20
86.312444391104805
30
0
0
SPLINE
5
273
100
AcDbEntity
8
0
100
AcDbSpline
70
0
71
2
72
6
73
3
74
0
42
0.000000001
43
0.0000000001
44
0.0000000001
40
0
40
0
40
0
40
1
40
1
40
1
10
44.313637922015019
20
86.312444391104805
30
0
10
44.377328066797155
20
86.339958765072055
30
0
10
44.404593411732129
20
86.3400641776839
30
0
0
SPLINE
5
274
100
AcDbEntity
8
0
100
AcDbSpline
70
0
71
2
72
6
73
3
74
0
42
0.000000001
43
0.0000000001
44
0.0000000001
40
0
40
0
40
0
40
1
40
1
40
1
10
44.404593411732129
20
86.3400641776839
30
0
10
44.697707790623049
20
86.341197409349419
30
0
10
44.583250297608444
20
85.999921069579216
30
0
0
SPLINE
5
275
100
AcDbEntity
8
0
100
AcDbSpline
70
0
71
2
72
6
73
3
74
0
42
0.000000001
43
0.0000000001
44
0.0000000001
40
0
40
0
40
0
40
1
40
1
40
1
10
44.583250297608444
20
85.999921069579216
30
0
10
44.48248193326112
20
85.699596283102508
30
0
10
43.966898848563822
20
85.360176148307261
30
0
0
SPLINE
5
276
100
AcDbEntity
8
0
100
AcDbSpline
70
0
71
2
72
6
73
3
74
0
42
0.000000001
43
0.0000000001
44
0.0000000001
40
0
40
0
40
0
40
1
40
1
40
1
10
43.966898848563822
20
85.360176148307261
30
0
10
43.451310986312954
20
85.020758379244768
30
0
10
42.885538389736283
20
85.018571003025443
30
0
0
SPLINE
5
277
100
AcDbEntity
8
0
100
AcDbSpline
70
0
71
2
72
6
73
3
74
0
42
0.000000001
43
0.0000000001
44
0.0000000001
40
0
40
0
40
0
40
1
40
1
40
1
10
42.885538389736283
20
85.018571003025443
30
0
10
42.306128352356183
20
85.016330902064993
30
0
10
42.143785278331976
20
85.475828325630829
30
0
0
SPLINE
5
278
100
AcDbEntity
8
0
100
AcDbSpline
70
0
71
2
72
6
73
3
74
0
42
0.000000001
43
0.0000000001
44
0.0000000001
40
0
40
0
40
0
40
1
40
1
40
1
10
42.143785278331976
20
85.475828325630829
30
0
10
41.981446963426109
20
85.935328151799894
30
0
10
42.468349469016786
20
87.934498497565755
30
0
0
SPLINE
5
279
100
AcDbEntity
8
0
100
AcDbSpline
70
0
71
2
72
6
73
3
74
0
42
0.000000001
43
0.0000000001
44
0.0000000001
40
0
40
0
40
0
40
1
40
1
40
1
10
42.468349469016786
20
87.934498497565755
30
0
10
42.950862594064567
20
89.940468311335252
30
0
10
42.337373259683702
20
89.938096453827598
30
0
0
ENDSEC
0
SECTION
2
OBJECTS
0
DICTIONARY
5
C
100
AcDbDictionary
3
ACAD_GROUP
350
D
3
ACAD_MLINESTYLE
350
17
0
DICTIONARY
5
D
100
AcDbDictionary
0
DICTIONARY
5
1A
330
C
100
AcDbDictionary
0
DICTIONARY
5
17
100
AcDbDictionary
0
ENDSEC
0
EOF
